# xmcd CD database file generated by Grip 3.0.1
# 
# Track frame offsets:
#       182
#       12562
#       24835
#       37710
#       48157
#       60342
#       77127
#       87985
#       102225
#       123450
# 
# Disc length: 1797 seconds
# 
# Revision: 2
# Processed by: cddbd v1.4PL0 Copyright (c) Steve Scherf et al.
# Submitted via: Grip 3.0.1
# 
DISCID=6b07030a
DTITLE=Johnny Winter - Leavin' Blues
DYEAR=1900
DGENRE=Blues
TTITLE0=Parchman Farm
TTITLE1=Livin' In The Blues
TTITLE2=Leavin' Blues
TTITLE3=38-32-20 Blues
TTITLE4=Bad News
TTITLE5=Kind Hearted Woman
TTITLE6=Out Of Sight
TTITLE7=Low Down Gal Of Mine
TTITLE8=Goin' Down Slow
TTITLE9=Avocado Green
EXTD=
EXTT0=
EXTT1=
EXTT2=
EXTT3=
EXTT4=
EXTT5=
EXTT6=
EXTT7=
EXTT8=
EXTT9=
PLAYORDER=
